<svg xmlns="http://www.w3.org/2000/svg" viewBox="0 0 306 352" fill="#ffa500">
  <path d="M247.295 238.252L244.17 241.502C207.92 279.153 147.806 280.288 110.165 244.049C72.5451 207.825 71.3889 147.747 107.582 110.101C143.837 72.5123 203.91 71.3977 241.53 107.616L244.78 110.747L301.113 52.2363L297.868 49.1113C228.024 -18.1387 116.431 -16.0867 49.0087 53.8144C-18.1788 123.71 -16.0122 235.309 53.8316 302.554C123.738 369.866 235.373 367.757 302.686 297.846L305.816 294.601L247.295 238.252Z"/>
  <path d="M180.128 177.07C180.128 178.695 179.858 180.226 179.316 181.653C178.785 183.085 177.951 184.34 176.816 185.424C175.691 186.507 174.243 187.361 172.483 187.986C170.717 188.611 168.613 188.924 166.17 188.924C163.821 188.924 161.795 188.616 160.087 188.007C158.378 187.413 156.951 186.59 155.816 185.549C154.691 184.497 153.847 183.247 153.295 181.799C152.753 180.34 152.483 178.768 152.483 177.07V161.882H157.337V177.153C157.337 179.585 158.108 181.476 159.649 182.82C161.201 184.153 163.493 184.82 166.524 184.82C169.592 184.82 171.806 184.148 173.17 182.799C174.545 181.439 175.233 179.559 175.233 177.153V161.882H180.128V177.07Z"/>
  <path d="M191.837 187.903V161.882H196.733V183.84H217.087V187.903H191.837Z"/>
  <path d="M241.891 187.903H238.037L223.724 161.882H229.037L240.183 182.549L251.287 161.882H256.641L241.891 187.903Z"/>
  <path d="M265.496 187.903V161.882H270.391V187.903H265.496Z"/>
  <path d="M282.495 187.903V161.882H287.391V187.903H282.495Z"/>
</svg>
