<?xml version="1.0" encoding="UTF-8"?> <svg xmlns="http://www.w3.org/2000/svg" xmlns:xlink="http://www.w3.org/1999/xlink" version="1.1" id="Layer_1" x="0px" y="0px" viewBox="0 0 500 500" style="enable-background:new 0 0 500 500;" xml:space="preserve"> <style type="text/css"> .st0{fill:#F76919;} .st1{fill:#FFFFFF;} </style> <path class="st0" d="M446.9,10H53.1C29.3,10,10,29.3,10,53.1v120.3v149.1v124.4c0,23.8,19.3,43.2,43.1,43.2h393.7 c23.8,0,43.1-19.3,43.1-43.2V372V121.4V53.1C490,29.3,470.7,10,446.9,10z"></path> <g> <path class="st1" d="M360.8,273.3c-11.4,22.6-20.2,34-26.5,34c-1.9,0-2.8-2.6-2.8-7.8c0-2.8,5.1-44.6,15.3-125.4l-32.6-4.2 c-7.5,23.7-15,45.9-22.5,66.7c-14,38.3-27.8,63.5-41.6,75.7c10-77.5,15.8-123.5,17.6-138.2l-32.6-4.2l-4.2,34 c-8.6,66.2-12.8,101.6-12.8,106.2c0,11.5,2.8,20.6,8.3,27.4s11.9,10.5,19.2,11.2h14.9l18.1-39.1l0,0c8.5-15.6,17.1-35.7,25.7-60.2 c-4.8,37.9-7.2,58.7-7.2,62.3c0,10.4,2.8,19.2,8.5,26.3c5.7,7.1,12.1,10.6,19.1,10.6c13.7,0,27.8-13.4,42.1-40.3 c2.5-4.6,4.9-9.5,7.3-14.7L360.8,273.3z"></path> <path class="st1" d="M289.4,373.5c-13.5,0.5-10.8,0.5-21.1,0.8l-64.1,2.6c-6.6,0.3-11.8,0.5-15.9,0.6l0,0c-3.1,0.1-5.6,0.1-7.5,0.1 l-12.3,0.4c-6.9,0.2-12.4-5.7-11.6-12.6l3.8-34.5c2.1-20.7,5.3-50,9-80.7l0,0c2.5-21.3,5.3-43.3,8.1-63.4l9.6-76 c0.5-4.4,1.3-10.7,2-16.3L157,90.4l-12.6,96.4c-9.1,64.3-18.4,157.4-18.4,163c0,13.8,6.3,27.2,18.8,40.3 c12.5,13.1,23.4,19.7,32.7,19.7c16.7,0,44.1-0.5,65-1.3c41.8-1.8,71.2-3.2,98.6-5c8.1-0.5,14.7-6.8,15.7-14.9l2.2-18.4l-58.9,2.9 C299.2,373.1,290.3,373.5,289.4,373.5z"></path> </g> </svg> 