<svg xmlns="http://www.w3.org/2000/svg" viewBox="-4 -4 45 68" width="128" height="128" fill="none">
  <rect x="-4" y="-4" width="45" height="68" fill="#ffffff" rx="4"/>
  <path fill-rule="evenodd" clip-rule="evenodd" d="M35.6778 49.3229C34.8752 51.2495 33.8294 53.0298 32.3023 54.4138C25.5169 60.58 12.4295 58.7249 1.20834 58.6275L1.06532 45.0507H2.67014C2.67014 53.1371 17.2182 59.0369 25.2265 51.4022C30.9151 45.9799 27.1861 38.7839 20.2526 34.7328L8.67935 27.9687C5.62551 26.2306 3.41634 24.2223 2.05184 21.9437C0.689944 19.6824 -0.0195658 17.0883 0.00187908 14.4487C-0.0320734 12.3845 0.394461 10.3386 1.25046 8.45996C4.42441 1.70903 11.4061 0.0659033 18.6607 9.62131e-05H19.5995C24.3669 0.0425052 29.1834 0.695307 33.0534 0.971404V12.6865H31.4448C31.2368 6.10582 23.0987 2.80376 16.754 4.18454C10.7144 5.50068 7.04675 11.946 10.6887 17.3811C11.5983 18.7358 13.0981 20.0386 15.1881 21.2894C17.4915 22.6475 19.7559 23.9654 21.9814 25.2431C24.2043 26.5199 25.9305 27.5378 27.16 28.2968C30.2603 30.1649 33.2938 32.6957 35.0385 35.9542C36.1554 37.9869 36.7937 40.2478 36.9045 42.5646C37.0153 44.8814 36.5957 47.1929 35.6778 49.3229Z" fill="#006DB4"/>
</svg>
