<?xml version="1.0" encoding="UTF-8"?>
<svg xmlns="http://www.w3.org/2000/svg" viewBox="0 0 512 512">
  <defs>
    <style>
      .cls-1 {
        fill: #fff;
      }

      .cls-2 {
        fill: #50144b;
      }
    </style>
  </defs>
  <g id="bg_colour" data-name="bg colour">
    <rect class="cls-2" width="512" height="512"/>
  </g>
  <g id="artwork">
    <path class="cls-1" d="m417.23,361.27c4.91-3.05,8.13-7.46,9.04-12.4.8-4.39-.29-8.72-3.15-12.49l-.16.08c-1.87-2.66-9.6-12.78-46.45-60.93,30.81-7.09,54.49-33.66,54.49-64.37,0-33.36-28.52-61.09-64.71-63.88H81v36.95h76.39v162.87c.09,9.91,8.38,17.09,19.75,17.09s19.65-7.2,19.65-17.09v-162.87c4.47,0,163.43-.03,163.43-.03,18.78,0,32.39,11.36,32.39,26.96,0,16.71-14.22,29.78-32.39,29.78h-6.06v.02h-92.19c-10.83,0-19.67,8.22-19.67,18.32l-.02,10.72v76.77c.96,10.17,9.43,17.57,19.72,17.57,10.86,0,19.7-8.22,19.7-18.32v-68.56h48.25l61.06,80.21c6.07,7.77,17.09,9.27,26.23,3.58"/>
  </g>
</svg>